<svg xmlns="http://www.w3.org/2000/svg" width="1200" height="760" viewBox="0 0 1200 760">
  <rect width="1200" height="760" fill="#eef6f5"/>
  <rect x="80" y="90" width="1040" height="560" rx="18" fill="#ffffff" stroke="#c9d8d6" stroke-width="3"/>
  <text x="600" y="65" text-anchor="middle" font-family="Arial" font-size="34" font-weight="700" fill="#123233">AtomQuest Portal Architecture</text>
  <g font-family="Arial" font-size="22" font-weight="700" fill="#123233">
    <rect x="120" y="190" width="210" height="105" rx="12" fill="#d9eeee" stroke="#126c67" stroke-width="3"/>
    <text x="225" y="235" text-anchor="middle">User Browser</text>
    <text x="225" y="264" text-anchor="middle" font-size="16" font-weight="400">Employee / Manager / Admin</text>
    <rect x="470" y="150" width="250" height="100" rx="12" fill="#e8edf3" stroke="#607085" stroke-width="3"/>
    <text x="595" y="193" text-anchor="middle">Next.js Frontend</text>
    <text x="595" y="222" text-anchor="middle" font-size="16" font-weight="400">Role dashboards and forms</text>
    <rect x="470" y="330" width="250" height="100" rx="12" fill="#fff0cf" stroke="#b98319" stroke-width="3"/>
    <text x="595" y="373" text-anchor="middle">API / Business Logic</text>
    <text x="595" y="402" text-anchor="middle" font-size="16" font-weight="400">Validation, scoring, locking</text>
    <rect x="860" y="240" width="210" height="105" rx="12" fill="#e1edf9" stroke="#306fb2" stroke-width="3"/>
    <text x="965" y="285" text-anchor="middle">PostgreSQL</text>
    <text x="965" y="314" text-anchor="middle" font-size="16" font-weight="400">Prisma ORM</text>
    <rect x="860" y="430" width="210" height="90" rx="12" fill="#fce1e5" stroke="#b74253" stroke-width="3"/>
    <text x="965" y="468" text-anchor="middle">Audit Logs</text>
    <text x="965" y="496" text-anchor="middle" font-size="16" font-weight="400">Governance trail</text>
    <rect x="160" y="430" width="210" height="90" rx="12" fill="#dff4e8" stroke="#178454" stroke-width="3"/>
    <text x="265" y="468" text-anchor="middle">Reports</text>
    <text x="265" y="496" text-anchor="middle" font-size="16" font-weight="400">CSV / Excel export</text>
  </g>
  <g stroke="#49636a" stroke-width="4" fill="none" marker-end="url(#arrow)">
    <path d="M330 242 L470 205"/>
    <path d="M595 250 L595 330"/>
    <path d="M720 380 L860 305"/>
    <path d="M720 405 L860 458"/>
    <path d="M470 405 L370 455"/>
  </g>
  <defs>
    <marker id="arrow" viewBox="0 0 10 10" refX="9" refY="5" markerWidth="8" markerHeight="8" orient="auto-start-reverse">
      <path d="M 0 0 L 10 5 L 0 10 z" fill="#49636a"/>
    </marker>
  </defs>
</svg>
